{
	"asset":{
		"generator":"Khronos glTF Blender I/O v4.2.70",
		"version":"2.0"
	},
	"extensionsUsed":[
		"KHR_materials_specular",
		"KHR_materials_ior"
	],
	"scene":0,
	"scenes":[
		{
			"name":"Scene",
			"nodes":[
				0
			]
		}
	],
	"nodes":[
		{
			"mesh":0,
			"name":"Mesh_0139",
			"rotation":[
				0.7071068286895752,
				0,
				0,
				0.7071068286895752
			]
		}
	],
	"materials":[
		{
			"doubleSided":true,
			"extensions":{
				"KHR_materials_specular":{
					"specularFactor":0
				}
			},
			"name":"Tex_0014_0_dds",
			"pbrMetallicRoughness":{
				"baseColorTexture":{
					"index":0
				},
				"metallicFactor":0,
				"roughnessFactor":0.9009852409362793
			}
		},
		{
			"doubleSided":true,
			"extensions":{
				"KHR_materials_specular":{
					"specularFactor":0
				}
			},
			"name":"Tex_0010_0_dds",
			"pbrMetallicRoughness":{
				"baseColorTexture":{
					"index":1
				},
				"metallicFactor":0,
				"roughnessFactor":0.9009852409362793
			}
		},
		{
			"doubleSided":true,
			"extensions":{
				"KHR_materials_specular":{
					"specularFactor":0
				}
			},
			"name":"Tex_0016_0_dds",
			"pbrMetallicRoughness":{
				"baseColorTexture":{
					"index":2
				},
				"metallicFactor":0,
				"roughnessFactor":0.9009852409362793
			}
		},
		{
			"doubleSided":true,
			"extensions":{
				"KHR_materials_specular":{
					"specularColorFactor":[
						1.600000023841858,
						1.600000023841858,
						1.600000023841858
					]
				},
				"KHR_materials_ior":{
					"ior":1
				}
			},
			"name":"None",
			"pbrMetallicRoughness":{
				"baseColorTexture":{
					"index":3
				},
				"metallicFactor":0
			}
		},
		{
			"doubleSided":true,
			"extensions":{
				"KHR_materials_specular":{
					"specularFactor":0
				}
			},
			"name":"Tex_0013_0_dds",
			"pbrMetallicRoughness":{
				"baseColorTexture":{
					"index":4
				},
				"metallicFactor":0,
				"roughnessFactor":0.9009852409362793
			}
		},
		{
			"doubleSided":true,
			"extensions":{
				"KHR_materials_specular":{
					"specularFactor":0
				}
			},
			"name":"Tex_0015_0_dds",
			"pbrMetallicRoughness":{
				"baseColorTexture":{
					"index":5
				},
				"metallicFactor":0,
				"roughnessFactor":0.9009852409362793
			}
		},
		{
			"doubleSided":true,
			"extensions":{
				"KHR_materials_specular":{
					"specularFactor":0
				}
			},
			"name":"Tex_0011_0_dds",
			"pbrMetallicRoughness":{
				"baseColorTexture":{
					"index":6
				},
				"metallicFactor":0,
				"roughnessFactor":0.9009852409362793
			}
		},
		{
			"doubleSided":true,
			"extensions":{
				"KHR_materials_specular":{
					"specularFactor":0
				}
			},
			"name":"Tex_0018_0_dds",
			"pbrMetallicRoughness":{
				"baseColorTexture":{
					"index":7
				},
				"metallicFactor":0,
				"roughnessFactor":0.9009852409362793
			}
		},
		{
			"doubleSided":true,
			"extensions":{
				"KHR_materials_specular":{
					"specularFactor":0
				}
			},
			"name":"Tex_0012_0_dds",
			"pbrMetallicRoughness":{
				"baseColorTexture":{
					"index":8
				},
				"metallicFactor":0,
				"roughnessFactor":0.9009852409362793
			}
		},
		{
			"doubleSided":true,
			"extensions":{
				"KHR_materials_specular":{
					"specularFactor":0
				}
			},
			"name":"Tex_0032_0_dds",
			"pbrMetallicRoughness":{
				"baseColorTexture":{
					"index":9
				},
				"metallicFactor":0,
				"roughnessFactor":0.9009852409362793
			}
		},
		{
			"doubleSided":true,
			"extensions":{
				"KHR_materials_specular":{
					"specularFactor":0
				}
			},
			"name":"Tex_0017_0_dds",
			"pbrMetallicRoughness":{
				"baseColorTexture":{
					"index":10
				},
				"metallicFactor":0,
				"roughnessFactor":0.9009852409362793
			}
		},
		{
			"doubleSided":true,
			"extensions":{
				"KHR_materials_specular":{
					"specularFactor":0
				}
			},
			"name":"Tex_0033_0_dds",
			"pbrMetallicRoughness":{
				"baseColorTexture":{
					"index":11
				},
				"metallicFactor":0,
				"roughnessFactor":0.9009852409362793
			}
		}
	],
	"meshes":[
		{
			"name":"Mesh_0139",
			"primitives":[
				{
					"attributes":{
						"POSITION":0,
						"NORMAL":1,
						"TEXCOORD_0":2
					},
					"indices":3,
					"material":0
				},
				{
					"attributes":{
						"POSITION":4,
						"NORMAL":5,
						"TEXCOORD_0":6
					},
					"indices":7,
					"material":1
				},
				{
					"attributes":{
						"POSITION":8,
						"NORMAL":9,
						"TEXCOORD_0":10
					},
					"indices":11,
					"material":2
				},
				{
					"attributes":{
						"POSITION":12,
						"NORMAL":13,
						"TEXCOORD_0":14
					},
					"indices":15,
					"material":3
				},
				{
					"attributes":{
						"POSITION":16,
						"NORMAL":17,
						"TEXCOORD_0":18
					},
					"indices":19,
					"material":4
				},
				{
					"attributes":{
						"POSITION":20,
						"NORMAL":21,
						"TEXCOORD_0":22
					},
					"indices":23,
					"material":5
				},
				{
					"attributes":{
						"POSITION":24,
						"NORMAL":25,
						"TEXCOORD_0":26
					},
					"indices":27,
					"material":6
				},
				{
					"attributes":{
						"POSITION":28,
						"NORMAL":29,
						"TEXCOORD_0":30
					},
					"indices":31,
					"material":7
				},
				{
					"attributes":{
						"POSITION":32,
						"NORMAL":33,
						"TEXCOORD_0":34
					},
					"indices":35,
					"material":8
				},
				{
					"attributes":{
						"POSITION":36,
						"NORMAL":37,
						"TEXCOORD_0":38
					},
					"indices":39,
					"material":9
				},
				{
					"attributes":{
						"POSITION":40,
						"NORMAL":41,
						"TEXCOORD_0":42
					},
					"indices":43,
					"material":10
				},
				{
					"attributes":{
						"POSITION":44,
						"NORMAL":45,
						"TEXCOORD_0":46
					},
					"indices":47,
					"material":11
				}
			]
		}
	],
	"textures":[
		{
			"sampler":0,
			"source":0
		},
		{
			"sampler":0,
			"source":1
		},
		{
			"sampler":0,
			"source":2
		},
		{
			"sampler":0,
			"source":3
		},
		{
			"sampler":0,
			"source":4
		},
		{
			"sampler":0,
			"source":5
		},
		{
			"sampler":0,
			"source":6
		},
		{
			"sampler":0,
			"source":7
		},
		{
			"sampler":0,
			"source":8
		},
		{
			"sampler":0,
			"source":9
		},
		{
			"sampler":0,
			"source":10
		},
		{
			"sampler":0,
			"source":11
		}
	],
	"images":[
		{
			"mimeType":"image/png",
			"name":"Tex_0014_0",
			"uri":"Tex_0014_0.png"
		},
		{
			"mimeType":"image/png",
			"name":"Tex_0010_0",
			"uri":"Tex_0010_0.png"
		},
		{
			"mimeType":"image/png",
			"name":"Tex_0016_0",
			"uri":"Tex_0016_0.png"
		},
		{
			"mimeType":"image/png",
			"name":"Tex_0009_0",
			"uri":"Tex_0009_0.png"
		},
		{
			"mimeType":"image/png",
			"name":"Tex_0013_0",
			"uri":"Tex_0013_0.png"
		},
		{
			"mimeType":"image/png",
			"name":"Tex_0015_0",
			"uri":"Tex_0015_0.png"
		},
		{
			"mimeType":"image/png",
			"name":"Tex_0011_0",
			"uri":"Tex_0011_0.png"
		},
		{
			"mimeType":"image/png",
			"name":"Tex_0018_0",
			"uri":"Tex_0018_0.png"
		},
		{
			"mimeType":"image/png",
			"name":"Tex_0012_0",
			"uri":"Tex_0012_0.png"
		},
		{
			"mimeType":"image/png",
			"name":"Tex_0032_0",
			"uri":"Tex_0032_0.png"
		},
		{
			"mimeType":"image/png",
			"name":"Tex_0017_0",
			"uri":"Tex_0017_0.png"
		},
		{
			"mimeType":"image/png",
			"name":"Tex_0033_0",
			"uri":"Tex_0033_0.png"
		}
	],
	"accessors":[
		{
			"bufferView":0,
			"componentType":5126,
			"count":74,
			"max":[
				-72.78583526611328,
				19.81119155883789,
				4.75194787979126
			],
			"min":[
				-252.23440551757812,
				-186.95571899414062,
				-128.3042755126953
			],
			"type":"VEC3"
		},
		{
			"bufferView":1,
			"componentType":5126,
			"count":74,
			"type":"VEC3"
		},
		{
			"bufferView":2,
			"componentType":5126,
			"count":74,
			"type":"VEC2"
		},
		{
			"bufferView":3,
			"componentType":5123,
			"count":150,
			"type":"SCALAR"
		},
		{
			"bufferView":4,
			"componentType":5126,
			"count":762,
			"max":[
				206.72250366210938,
				97.47378540039062,
				142.5601806640625
			],
			"min":[
				-252.23440551757812,
				-197.8055419921875,
				-128.3042755126953
			],
			"type":"VEC3"
		},
		{
			"bufferView":5,
			"componentType":5126,
			"count":762,
			"type":"VEC3"
		},
		{
			"bufferView":6,
			"componentType":5126,
			"count":762,
			"type":"VEC2"
		},
		{
			"bufferView":7,
			"componentType":5123,
			"count":1131,
			"type":"SCALAR"
		},
		{
			"bufferView":8,
			"componentType":5126,
			"count":20,
			"max":[
				570.240234375,
				542.3312377929688,
				0.0006099999882280827
			],
			"min":[
				-570.240234375,
				-542.3306884765625,
				-380.1607666015625
			],
			"type":"VEC3"
		},
		{
			"bufferView":9,
			"componentType":5126,
			"count":20,
			"type":"VEC3"
		},
		{
			"bufferView":10,
			"componentType":5126,
			"count":20,
			"type":"VEC2"
		},
		{
			"bufferView":11,
			"componentType":5123,
			"count":30,
			"type":"SCALAR"
		},
		{
			"bufferView":12,
			"componentType":5126,
			"count":376,
			"max":[
				212.37745666503906,
				85.73219299316406,
				45.2266845703125
			],
			"min":[
				-142.61257934570312,
				-215.01390075683594,
				-124.50259399414062
			],
			"type":"VEC3"
		},
		{
			"bufferView":13,
			"componentType":5126,
			"count":376,
			"type":"VEC3"
		},
		{
			"bufferView":14,
			"componentType":5126,
			"count":376,
			"type":"VEC2"
		},
		{
			"bufferView":15,
			"componentType":5123,
			"count":489,
			"type":"SCALAR"
		},
		{
			"bufferView":16,
			"componentType":5126,
			"count":42,
			"max":[
				-106.25350189208984,
				8.308076858520508,
				-11.404826164245605
			],
			"min":[
				-238.56777954101562,
				-190.3004608154297,
				-99.79219818115234
			],
			"type":"VEC3"
		},
		{
			"bufferView":17,
			"componentType":5126,
			"count":42,
			"type":"VEC3"
		},
		{
			"bufferView":18,
			"componentType":5126,
			"count":42,
			"type":"VEC2"
		},
		{
			"bufferView":19,
			"componentType":5123,
			"count":87,
			"type":"SCALAR"
		},
		{
			"bufferView":20,
			"componentType":5126,
			"count":62,
			"max":[
				627.2642822265625,
				627.2647094726562,
				380.1607666015625
			],
			"min":[
				-627.2642822265625,
				-627.2638549804688,
				-380.1607666015625
			],
			"type":"VEC3"
		},
		{
			"bufferView":21,
			"componentType":5126,
			"count":62,
			"type":"VEC3"
		},
		{
			"bufferView":22,
			"componentType":5126,
			"count":62,
			"type":"VEC2"
		},
		{
			"bufferView":23,
			"componentType":5123,
			"count":96,
			"type":"SCALAR"
		},
		{
			"bufferView":24,
			"componentType":5126,
			"count":615,
			"max":[
				212.37745666503906,
				68.44205474853516,
				3.801666021347046
			],
			"min":[
				-164.44776916503906,
				-259.60400390625,
				-124.50259399414062
			],
			"type":"VEC3"
		},
		{
			"bufferView":25,
			"componentType":5126,
			"count":615,
			"type":"VEC3"
		},
		{
			"bufferView":26,
			"componentType":5126,
			"count":615,
			"type":"VEC2"
		},
		{
			"bufferView":27,
			"componentType":5123,
			"count":1029,
			"type":"SCALAR"
		},
		{
			"bufferView":28,
			"componentType":5126,
			"count":45,
			"max":[
				-28.512012481689453,
				-27.820789337158203,
				6.652767181396484
			],
			"min":[
				-96.35774230957031,
				-159.66725158691406,
				-0.19026699662208557
			],
			"type":"VEC3"
		},
		{
			"bufferView":29,
			"componentType":5126,
			"count":45,
			"type":"VEC3"
		},
		{
			"bufferView":30,
			"componentType":5126,
			"count":45,
			"type":"VEC2"
		},
		{
			"bufferView":31,
			"componentType":5123,
			"count":48,
			"type":"SCALAR"
		},
		{
			"bufferView":32,
			"componentType":5126,
			"count":104,
			"max":[
				-106.25350189208984,
				8.308076858520508,
				7.222916126251221
			],
			"min":[
				-236.82814025878906,
				-190.30056762695312,
				-99.79219818115234
			],
			"type":"VEC3"
		},
		{
			"bufferView":33,
			"componentType":5126,
			"count":104,
			"type":"VEC3"
		},
		{
			"bufferView":34,
			"componentType":5126,
			"count":104,
			"type":"VEC2"
		},
		{
			"bufferView":35,
			"componentType":5123,
			"count":159,
			"type":"SCALAR"
		},
		{
			"bufferView":36,
			"componentType":5126,
			"count":172,
			"max":[
				-28.512022018432617,
				-27.820789337158203,
				1.9007669687271118
			],
			"min":[
				-227.36447143554688,
				-169.5692138671875,
				-114.04822540283203
			],
			"type":"VEC3"
		},
		{
			"bufferView":37,
			"componentType":5126,
			"count":172,
			"type":"VEC3"
		},
		{
			"bufferView":38,
			"componentType":5126,
			"count":172,
			"type":"VEC2"
		},
		{
			"bufferView":39,
			"componentType":5123,
			"count":534,
			"type":"SCALAR"
		},
		{
			"bufferView":40,
			"componentType":5126,
			"count":25,
			"max":[
				627.2642822265625,
				627.2642822265625,
				54.17354202270508
			],
			"min":[
				-627.2642822265625,
				-627.2642822265625,
				54.17210388183594
			],
			"type":"VEC3"
		},
		{
			"bufferView":41,
			"componentType":5126,
			"count":25,
			"type":"VEC3"
		},
		{
			"bufferView":42,
			"componentType":5126,
			"count":25,
			"type":"VEC2"
		},
		{
			"bufferView":43,
			"componentType":5123,
			"count":96,
			"type":"SCALAR"
		},
		{
			"bufferView":44,
			"componentType":5126,
			"count":144,
			"max":[
				-102.86890411376953,
				-51.69741439819336,
				6.747660160064697
			],
			"min":[
				-214.11317443847656,
				-162.14385986328125,
				-114.04821014404297
			],
			"type":"VEC3"
		},
		{
			"bufferView":45,
			"componentType":5126,
			"count":144,
			"type":"VEC3"
		},
		{
			"bufferView":46,
			"componentType":5126,
			"count":144,
			"type":"VEC2"
		},
		{
			"bufferView":47,
			"componentType":5123,
			"count":282,
			"type":"SCALAR"
		}
	],
	"bufferViews":[
		{
			"buffer":0,
			"byteLength":888,
			"byteOffset":0,
			"target":34962
		},
		{
			"buffer":0,
			"byteLength":888,
			"byteOffset":888,
			"target":34962
		},
		{
			"buffer":0,
			"byteLength":592,
			"byteOffset":1776,
			"target":34962
		},
		{
			"buffer":0,
			"byteLength":300,
			"byteOffset":2368,
			"target":34963
		},
		{
			"buffer":0,
			"byteLength":9144,
			"byteOffset":2668,
			"target":34962
		},
		{
			"buffer":0,
			"byteLength":9144,
			"byteOffset":11812,
			"target":34962
		},
		{
			"buffer":0,
			"byteLength":6096,
			"byteOffset":20956,
			"target":34962
		},
		{
			"buffer":0,
			"byteLength":2262,
			"byteOffset":27052,
			"target":34963
		},
		{
			"buffer":0,
			"byteLength":240,
			"byteOffset":29316,
			"target":34962
		},
		{
			"buffer":0,
			"byteLength":240,
			"byteOffset":29556,
			"target":34962
		},
		{
			"buffer":0,
			"byteLength":160,
			"byteOffset":29796,
			"target":34962
		},
		{
			"buffer":0,
			"byteLength":60,
			"byteOffset":29956,
			"target":34963
		},
		{
			"buffer":0,
			"byteLength":4512,
			"byteOffset":30016,
			"target":34962
		},
		{
			"buffer":0,
			"byteLength":4512,
			"byteOffset":34528,
			"target":34962
		},
		{
			"buffer":0,
			"byteLength":3008,
			"byteOffset":39040,
			"target":34962
		},
		{
			"buffer":0,
			"byteLength":978,
			"byteOffset":42048,
			"target":34963
		},
		{
			"buffer":0,
			"byteLength":504,
			"byteOffset":43028,
			"target":34962
		},
		{
			"buffer":0,
			"byteLength":504,
			"byteOffset":43532,
			"target":34962
		},
		{
			"buffer":0,
			"byteLength":336,
			"byteOffset":44036,
			"target":34962
		},
		{
			"buffer":0,
			"byteLength":174,
			"byteOffset":44372,
			"target":34963
		},
		{
			"buffer":0,
			"byteLength":744,
			"byteOffset":44548,
			"target":34962
		},
		{
			"buffer":0,
			"byteLength":744,
			"byteOffset":45292,
			"target":34962
		},
		{
			"buffer":0,
			"byteLength":496,
			"byteOffset":46036,
			"target":34962
		},
		{
			"buffer":0,
			"byteLength":192,
			"byteOffset":46532,
			"target":34963
		},
		{
			"buffer":0,
			"byteLength":7380,
			"byteOffset":46724,
			"target":34962
		},
		{
			"buffer":0,
			"byteLength":7380,
			"byteOffset":54104,
			"target":34962
		},
		{
			"buffer":0,
			"byteLength":4920,
			"byteOffset":61484,
			"target":34962
		},
		{
			"buffer":0,
			"byteLength":2058,
			"byteOffset":66404,
			"target":34963
		},
		{
			"buffer":0,
			"byteLength":540,
			"byteOffset":68464,
			"target":34962
		},
		{
			"buffer":0,
			"byteLength":540,
			"byteOffset":69004,
			"target":34962
		},
		{
			"buffer":0,
			"byteLength":360,
			"byteOffset":69544,
			"target":34962
		},
		{
			"buffer":0,
			"byteLength":96,
			"byteOffset":69904,
			"target":34963
		},
		{
			"buffer":0,
			"byteLength":1248,
			"byteOffset":70000,
			"target":34962
		},
		{
			"buffer":0,
			"byteLength":1248,
			"byteOffset":71248,
			"target":34962
		},
		{
			"buffer":0,
			"byteLength":832,
			"byteOffset":72496,
			"target":34962
		},
		{
			"buffer":0,
			"byteLength":318,
			"byteOffset":73328,
			"target":34963
		},
		{
			"buffer":0,
			"byteLength":2064,
			"byteOffset":73648,
			"target":34962
		},
		{
			"buffer":0,
			"byteLength":2064,
			"byteOffset":75712,
			"target":34962
		},
		{
			"buffer":0,
			"byteLength":1376,
			"byteOffset":77776,
			"target":34962
		},
		{
			"buffer":0,
			"byteLength":1068,
			"byteOffset":79152,
			"target":34963
		},
		{
			"buffer":0,
			"byteLength":300,
			"byteOffset":80220,
			"target":34962
		},
		{
			"buffer":0,
			"byteLength":300,
			"byteOffset":80520,
			"target":34962
		},
		{
			"buffer":0,
			"byteLength":200,
			"byteOffset":80820,
			"target":34962
		},
		{
			"buffer":0,
			"byteLength":192,
			"byteOffset":81020,
			"target":34963
		},
		{
			"buffer":0,
			"byteLength":1728,
			"byteOffset":81212,
			"target":34962
		},
		{
			"buffer":0,
			"byteLength":1728,
			"byteOffset":82940,
			"target":34962
		},
		{
			"buffer":0,
			"byteLength":1152,
			"byteOffset":84668,
			"target":34962
		},
		{
			"buffer":0,
			"byteLength":564,
			"byteOffset":85820,
			"target":34963
		}
	],
	"samplers":[
		{
			"magFilter":9729,
			"minFilter":9987
		}
	],
	"buffers":[
		{
			"byteLength":86384,
			"uri":"map.bin"
		}
	]
}
