{
	"asset":{
		"generator":"Khronos glTF Blender I/O v4.2.70",
		"version":"2.0"
	},
	"scene":0,
	"scenes":[
		{
			"name":"Scene",
			"nodes":[
				7
			]
		}
	],
	"nodes":[
		{
			"name":"field1"
		},
		{
			"name":"polySurface1"
		},
		{
			"children":[
				0,
				1
			],
			"name":"field_mini",
			"rotation":[
				-0.7071067690849304,
				0,
				0,
				0.7071067690849304
			]
		},
		{
			"mesh":0,
			"name":"mesh_0_",
			"skin":0
		},
		{
			"mesh":1,
			"name":"mesh_1_",
			"skin":0
		},
		{
			"mesh":2,
			"name":"mesh_2_",
			"skin":0
		},
		{
			"mesh":3,
			"name":"mesh_3_",
			"skin":0
		},
		{
			"children":[
				3,
				4,
				5,
				6,
				2
			],
			"name":"Armature",
			"rotation":[
				0.7071068286895752,
				0,
				0,
				0.7071068286895752
			],
			"scale":[
				0.30000001192092896,
				0.30000001192092896,
				0.30000001192092896
			]
		}
	],
	"materials":[
		{
			"doubleSided":true,
			"name":"green",
			"pbrMetallicRoughness":{
				"baseColorTexture":{
					"index":0
				},
				"metallicFactor":0,
				"roughnessFactor":0.5
			}
		},
		{
			"doubleSided":true,
			"name":"lambert10",
			"pbrMetallicRoughness":{
				"baseColorTexture":{
					"index":1
				},
				"metallicFactor":0,
				"roughnessFactor":0.5
			}
		},
		{
			"doubleSided":true,
			"name":"wall",
			"pbrMetallicRoughness":{
				"baseColorTexture":{
					"index":2
				},
				"metallicFactor":0,
				"roughnessFactor":0.5
			}
		},
		{
			"doubleSided":true,
			"name":"wall2",
			"pbrMetallicRoughness":{
				"baseColorTexture":{
					"index":3
				},
				"metallicFactor":0,
				"roughnessFactor":0.5
			}
		}
	],
	"meshes":[
		{
			"name":"mesh_0_",
			"primitives":[
				{
					"attributes":{
						"POSITION":0,
						"NORMAL":1,
						"TEXCOORD_0":2,
						"JOINTS_0":3,
						"WEIGHTS_0":4
					},
					"indices":5,
					"material":0
				}
			]
		},
		{
			"name":"mesh_1_",
			"primitives":[
				{
					"attributes":{
						"POSITION":7,
						"NORMAL":8,
						"TEXCOORD_0":9,
						"JOINTS_0":10,
						"WEIGHTS_0":11
					},
					"indices":12,
					"material":1
				}
			]
		},
		{
			"name":"mesh_2_",
			"primitives":[
				{
					"attributes":{
						"POSITION":13,
						"NORMAL":14,
						"TEXCOORD_0":15,
						"JOINTS_0":16,
						"WEIGHTS_0":17
					},
					"indices":18,
					"material":2
				}
			]
		},
		{
			"name":"mesh_3_",
			"primitives":[
				{
					"attributes":{
						"POSITION":19,
						"NORMAL":20,
						"TEXCOORD_0":21,
						"JOINTS_0":22,
						"WEIGHTS_0":23
					},
					"indices":24,
					"material":3
				}
			]
		}
	],
	"textures":[
		{
			"sampler":0,
			"source":0
		},
		{
			"sampler":0,
			"source":1
		},
		{
			"sampler":0,
			"source":2
		},
		{
			"sampler":0,
			"source":3
		}
	],
	"images":[
		{
			"mimeType":"image/png",
			"name":"field",
			"uri":"field.png"
		},
		{
			"mimeType":"image/png",
			"name":"side",
			"uri":"side.png"
		},
		{
			"mimeType":"image/png",
			"name":"wall",
			"uri":"wall.png"
		},
		{
			"mimeType":"image/png",
			"name":"wall2",
			"uri":"wall2.png"
		}
	],
	"skins":[
		{
			"inverseBindMatrices":6,
			"joints":[
				2,
				0,
				1
			],
			"name":"Armature"
		}
	],
	"accessors":[
		{
			"bufferView":0,
			"componentType":5126,
			"count":1207,
			"max":[
				54.000003814697266,
				3.3345315841870615e-06,
				44.167205810546875
			],
			"min":[
				-48,
				-3.3345315841870615e-06,
				-44.167205810546875
			],
			"type":"VEC3"
		},
		{
			"bufferView":1,
			"componentType":5126,
			"count":1207,
			"type":"VEC3"
		},
		{
			"bufferView":2,
			"componentType":5126,
			"count":1207,
			"type":"VEC2"
		},
		{
			"bufferView":3,
			"componentType":5121,
			"count":1207,
			"type":"VEC4"
		},
		{
			"bufferView":4,
			"componentType":5126,
			"count":1207,
			"type":"VEC4"
		},
		{
			"bufferView":5,
			"componentType":5123,
			"count":6834,
			"type":"SCALAR"
		},
		{
			"bufferView":6,
			"componentType":5126,
			"count":3,
			"type":"MAT4"
		},
		{
			"bufferView":7,
			"componentType":5126,
			"count":408,
			"max":[
				54.000003814697266,
				3.3345315841870615e-06,
				44.167205810546875
			],
			"min":[
				-48,
				-6.000003337860107,
				-44.167205810546875
			],
			"type":"VEC3"
		},
		{
			"bufferView":8,
			"componentType":5126,
			"count":408,
			"type":"VEC3"
		},
		{
			"bufferView":9,
			"componentType":5126,
			"count":408,
			"type":"VEC2"
		},
		{
			"bufferView":10,
			"componentType":5121,
			"count":408,
			"type":"VEC4"
		},
		{
			"bufferView":11,
			"componentType":5126,
			"count":408,
			"type":"VEC4"
		},
		{
			"bufferView":12,
			"componentType":5123,
			"count":804,
			"type":"SCALAR"
		},
		{
			"bufferView":13,
			"componentType":5126,
			"count":278,
			"max":[
				36,
				21,
				2.5980782508850098
			],
			"min":[
				-36,
				-1.961492216651095e-06,
				-25.980751037597656
			],
			"type":"VEC3"
		},
		{
			"bufferView":14,
			"componentType":5126,
			"count":278,
			"type":"VEC3"
		},
		{
			"bufferView":15,
			"componentType":5126,
			"count":278,
			"type":"VEC2"
		},
		{
			"bufferView":16,
			"componentType":5121,
			"count":278,
			"type":"VEC4"
		},
		{
			"bufferView":17,
			"componentType":5126,
			"count":278,
			"type":"VEC4"
		},
		{
			"bufferView":18,
			"componentType":5123,
			"count":648,
			"type":"SCALAR"
		},
		{
			"bufferView":19,
			"componentType":5126,
			"count":58,
			"max":[
				34.12320327758789,
				21,
				-7.927280307740148e-07
			],
			"min":[
				-34.12320327758789,
				10.5,
				-18.851491928100586
			],
			"type":"VEC3"
		},
		{
			"bufferView":20,
			"componentType":5126,
			"count":58,
			"type":"VEC3"
		},
		{
			"bufferView":21,
			"componentType":5126,
			"count":58,
			"type":"VEC2"
		},
		{
			"bufferView":22,
			"componentType":5121,
			"count":58,
			"type":"VEC4"
		},
		{
			"bufferView":23,
			"componentType":5126,
			"count":58,
			"type":"VEC4"
		},
		{
			"bufferView":24,
			"componentType":5123,
			"count":78,
			"type":"SCALAR"
		}
	],
	"bufferViews":[
		{
			"buffer":0,
			"byteLength":14484,
			"byteOffset":0,
			"target":34962
		},
		{
			"buffer":0,
			"byteLength":14484,
			"byteOffset":14484,
			"target":34962
		},
		{
			"buffer":0,
			"byteLength":9656,
			"byteOffset":28968,
			"target":34962
		},
		{
			"buffer":0,
			"byteLength":4828,
			"byteOffset":38624,
			"target":34962
		},
		{
			"buffer":0,
			"byteLength":19312,
			"byteOffset":43452,
			"target":34962
		},
		{
			"buffer":0,
			"byteLength":13668,
			"byteOffset":62764,
			"target":34963
		},
		{
			"buffer":0,
			"byteLength":192,
			"byteOffset":76432
		},
		{
			"buffer":0,
			"byteLength":4896,
			"byteOffset":76624,
			"target":34962
		},
		{
			"buffer":0,
			"byteLength":4896,
			"byteOffset":81520,
			"target":34962
		},
		{
			"buffer":0,
			"byteLength":3264,
			"byteOffset":86416,
			"target":34962
		},
		{
			"buffer":0,
			"byteLength":1632,
			"byteOffset":89680,
			"target":34962
		},
		{
			"buffer":0,
			"byteLength":6528,
			"byteOffset":91312,
			"target":34962
		},
		{
			"buffer":0,
			"byteLength":1608,
			"byteOffset":97840,
			"target":34963
		},
		{
			"buffer":0,
			"byteLength":3336,
			"byteOffset":99448,
			"target":34962
		},
		{
			"buffer":0,
			"byteLength":3336,
			"byteOffset":102784,
			"target":34962
		},
		{
			"buffer":0,
			"byteLength":2224,
			"byteOffset":106120,
			"target":34962
		},
		{
			"buffer":0,
			"byteLength":1112,
			"byteOffset":108344,
			"target":34962
		},
		{
			"buffer":0,
			"byteLength":4448,
			"byteOffset":109456,
			"target":34962
		},
		{
			"buffer":0,
			"byteLength":1296,
			"byteOffset":113904,
			"target":34963
		},
		{
			"buffer":0,
			"byteLength":696,
			"byteOffset":115200,
			"target":34962
		},
		{
			"buffer":0,
			"byteLength":696,
			"byteOffset":115896,
			"target":34962
		},
		{
			"buffer":0,
			"byteLength":464,
			"byteOffset":116592,
			"target":34962
		},
		{
			"buffer":0,
			"byteLength":232,
			"byteOffset":117056,
			"target":34962
		},
		{
			"buffer":0,
			"byteLength":928,
			"byteOffset":117288,
			"target":34962
		},
		{
			"buffer":0,
			"byteLength":156,
			"byteOffset":118216,
			"target":34963
		}
	],
	"samplers":[
		{
			"magFilter":9729,
			"minFilter":9987
		}
	],
	"buffers":[
		{
			"byteLength":118372,
			"uri":"map.bin"
		}
	]
}
